<svg width="0" height="0" class="hidden">
  <symbol fill="none" xmlns="http://www.w3.org/2000/svg" viewBox="0 0 19 19" id="search">
    <path fill-rule="evenodd" clip-rule="evenodd" d="M17.9005 16.4865L14.3205 12.9065L14.3195 12.9055C16.9095 9.569 16.4594 4.79387 13.2916 2.00007C10.1238 -0.793727 5.32983 -0.643497 2.34317 2.34317C-0.643497 5.32983 -0.793727 10.1238 2.00007 13.2916C4.79387 16.4594 9.569 16.9095 12.9055 14.3195L16.4855 17.8995C16.7364 18.1596 17.1081 18.2642 17.4578 18.1729C17.8075 
    18.0816 18.0808 17.8088 18.1725 17.4592C18.2643 17.1097 18.1603 16.7378 17.9005 16.4865ZM13.1967 11.0005C12.1249
     12.8569 10.1441 14.0005 8.00052 14.0005C4.68681 14.0005 2.00052 11.3142 2.00052 8.00052C2.00052 4.68681 4.68681 
     2.00052 8.00052 2.00052C10.1441 2.00052 12.1249 3.14411 13.1967 5.00052C14.2685 6.85693 14.2685 9.14411 13.1967 
     11.0005Z" fill="black"></path>
  </symbol>

   <symbol fill="none" xmlns="http://www.w3.org/2000/svg" viewBox="0 0 27 20" id="video">
    <path opacity="0.24" fill-rule="evenodd" clip-rule="evenodd" d="M22.2082 2.86766L18.4091 5.68182V2.50266C18.4091 
    1.11814 17.3104 0 15.955 0H2.4541C1.09644 0 0 1.12048 0 2.50266V17.4973C0 18.8819 1.09874 20 2.4541 20H15.955C17.3126 
    20 18.4091 18.8795 18.4091 17.4973V14.3182L22.2082 17.1323C22.48 17.3336 22.9801 17.5 23.32 17.5H25.7691C26.456 17.5 27
     16.939 27 16.2469V3.75309C27 3.06064 26.4489 2.5 25.7691 2.5H23.32C22.9732 2.5 22.4823 2.66461 22.2082 2.86766ZM2.45455
      17.5V2.5H15.9545V17.5H2.45455ZM4.90909 13.75C4.90909 13.0596 5.45956 12.5 6.13996 12.5H12.2691C12.9489 12.5 13.5
       13.0548 13.5 13.75C13.5 14.4404 12.9495 15 12.2691 15H6.13996C5.46017 15 4.90909 14.4452 4.90909 13.75ZM23.5108 
       14.9998L18.424 11.238L18.4243 8.76179L23.5073 4.9966L24.5455 4.99818V14.9988L23.5108 14.9998Z" fill="black"></path>
  </symbol>

   <symbol fill="none" xmlns="http://www.w3.org/2000/svg" viewBox="0 0 21 21" id="apps">
    <path opacity="0.24" fill-rule="evenodd" clip-rule="evenodd" d="M0 2.5C0 3.88071 1.11929 5 2.5 5C3.88071 5 5 3.88071 5 2.5C5 1.11929 3.88071 0 2.5 0C1.11929 0 0 1.11929 0 2.5ZM2.5 13C1.11929 13 0 11.8807 0 10.5C0 9.11929 1.11929 8 2.5 8C3.88071 8 5 9.11929 5 10.5C5 11.8807 3.88071 13 2.5 13ZM2.5 21C1.11929 21 0 19.8807 0 18.5C0 17.1193 1.11929 16 2.5 16C3.88071 16 5 17.1193 5 18.5C5 19.8807 3.88071 21 2.5 21ZM10.5 21C9.11929 21 8 19.8807 8 18.5C8 17.1193 9.11929 16 10.5 16C11.8807 16 13 17.1193 13 18.5C13 19.8807 11.8807 21 10.5 21ZM16 18.5C16 19.8807 17.1193 21 18.5 21C19.8807 21 21 19.8807 21 18.5C21 17.1193 19.8807 16 18.5 16C17.1193 16 16 17.1193 16 18.5ZM10.5 13C9.11929 13 8 11.8807 8 10.5C8 9.11929 9.11929 8 10.5 8C11.8807 8 13 9.11929 13 10.5C13 11.8807 11.8807 13 10.5 13ZM8 2.5C8 3.88071 9.11929 5 10.5 5C11.8807 5 13 3.88071 13 2.5C13 1.11929 11.8807 0 10.5 0C9.11929 0 8 1.11929 8 2.5ZM18.5 13C17.1193 13 16 11.8807 16 10.5C16 9.11929 17.1193 8 18.5 8C19.8807 8 21 9.11929 21 10.5C21 11.8807 19.8807 13 18.5 13ZM16 2.5C16 3.88071 17.1193 5 18.5 5C19.8807 5 21 3.88071 21 2.5C21 1.11929 19.8807 0 18.5 0C17.1193 0 16 1.11929 16 2.5Z" fill="black"></path>
  </symbol>

    <symbol fill="none" xmlns="http://www.w3.org/2000/svg" viewBox="0 0 22 26" id="natification">
    <path opacity="0.24" fill-rule="evenodd" clip-rule="evenodd" d="M3.66927 22.4545C1.64382 22.4545 0 20.8655 0 18.9091C0 17.6106 0.727122 16.4532 1.83849 15.835C1.83849 15.4764 1.83333 11.2256 1.83333 11.2256C1.83333 7.14185 4.66852 3.70365 8.55556 2.6765V2.36364C8.55556 1.05824 9.64997 0 11 0C12.35 0 13.4444 1.05824 13.4444 2.36364V2.6765C17.3323 3.70344 20.1667 7.14194 20.1667 11.2318V15.8454C21.2793 16.4664 22 17.619 22 18.9091C22 20.8681 20.3586 22.4545 18.3307 22.4545H14.6667C14.6646 24.413 13.0197 26 11 26C8.97496 26 7.33333 24.4143 7.33333 22.4571L3.66927 22.4545ZM9.77778 22.4545C9.77778 23.1083 10.3244 23.6364 11 23.6364C11.6709 23.6364 12.2201 23.1064 12.2222 22.4545H9.77778ZM17.7222 11.2318V16.9427C17.7222 17.2702 17.9922 17.6032 18.3181 17.6847L18.6385 17.7648C19.1733 17.8984 19.5556 18.3689 19.5556 18.9091C19.5556 19.5624 19.0088 20.0909 18.3307 20.0909H3.66927C2.99369 20.0909 2.44444 19.56 2.44444 18.9091C2.44444 18.3666 2.82517 17.8979 3.36026 17.7647L3.69151 17.6823C4.0153 17.6017 4.27778 17.2732 4.27778 16.9426V11.2256C4.27778 7.63639 7.28675 4.72727 11 4.72727C14.7148 4.72727 17.7222 7.63541 17.7222 11.2318Z" fill="black"></path>
  </symbol>

   <symbol fill="none" xmlns="http://www.w3.org/2000/svg" viewBox="0 0 20 16" id="library">
    <path opacity="0.24" fill-rule="evenodd" clip-rule="evenodd" d="M1.81377 0C0.818072 0 0 0.793984 0 1.77341V14.2266C0 15.2066 0.814396 16 1.819 16H18.181C19.185 16 20 15.2042 20 14.2225V4.44412C20 3.4608 19.1843 2.66667 18.1781 2.66667H10.0034L8.71574 0.742815C8.441 0.332343 7.81071 0 7.30762 0H1.81377ZM18.181 14.2222L1.81818 14.2266L1.81377 1.77778L7.27273 1.78212L8.48211 3.64019C8.818 4.14203 9.39005 4.44444 10.0034 4.44444L18.1818 4.44412L18.181 14.2222Z" fill="black"></path>
  </symbol>
  <symbol fill="none" xmlns="http://www.w3.org/2000/svg" viewBox="0 0 19 20" id="setting">
    <path opacity="0.24" fill-rule="evenodd" clip-rule="evenodd" d="M13.4684 3.72984L12.7255 3.2963C12.7255 3.2963 11.9499 1.18529 11.8845 1.04241C11.6372 0.446706 10.9608 0 10.2828 0H8.42097C7.74577 0 7.07222 0.445749 6.80795 1.06812C6.75378 1.18551 5.98673 3.29574 5.98673 3.29574L5.25274 3.73208C5.25274 3.73208 3.01723 3.34267 2.86067 3.32789C2.22115 3.24416 1.49608 3.60662 1.15706 4.19382L0.22616 5.80618C-0.11144 6.39092 -0.0621848 7.1971 0.344673 7.73715C0.419296 7.84283 1.8639 9.57203 1.8639 9.57203C1.8639 9.57203 1.85186 9.85686 1.85186 10C1.85186 10.303 1.86248 10.429 1.86248 10.429C1.86248 10.429 0.419296 12.1572 0.328229 12.2853C-0.0641449 12.7973 -0.112893 13.6066 0.22616 14.1938L1.15706 15.8062C1.49462 16.3909 2.21732 16.7514 2.88838 16.6691C3.01723 16.6573 5.23083 16.2672 5.23083 16.2672L5.97602 16.6921C5.97602 16.6921 6.75378 18.8145 6.81919 18.9574C7.06642 19.5532 7.74286 20 8.42097 20H10.2828C10.9579 20 11.6314 19.5544 11.8957 18.9321C11.9499 18.8147 12.7255 16.7 12.7255 16.7L13.4565 16.269C13.4565 16.269 15.8311 16.6709 15.8364 16.6714C16.4824 16.7558 17.2076 16.3934 17.5467 15.8062L18.4776 14.1938C18.8151 13.6091 18.766 12.803 18.3592 12.263C18.2846 12.1573 16.8393 10.4365 16.8393 10.4365C16.8393 10.4365 16.8519 10.146 16.8519 10C16.8519 9.69704 16.8429 9.56952 16.8429 9.56952C16.8429 9.56952 18.2846 7.8427 18.3757 7.71452C18.7679 7.20254 18.8166 6.39338 18.4776 5.80618L17.5467 4.19382C17.2091 3.60908 16.4863 3.24864 15.8151 3.33097C15.6863 3.34276 13.4684 3.72984 13.4684 3.72984ZM10.9423 4.30503L11.0766 4.75439L11.508 4.93843C11.9156 5.11235 12.3007 5.33528 12.6549 5.60181L13.0302 5.88422L13.4872 5.77567C14.151 5.618 15.7116 5.35656 15.8613 5.33828C15.9481 5.32769 16.6964 6.62368 16.6438 6.69352C16.5532 6.81399 15.5466 8.03475 15.0782 8.5308L14.7565 8.8714L14.8124 9.33653C14.8386 9.55534 14.8519 9.77673 14.8519 10C14.8519 10.2233 14.8386 10.4447 14.8124 10.6635L14.7565 11.1286L15.0782 11.4692C15.5466 11.9652 16.5532 13.186 16.6438 13.3065C16.6964 13.3763 15.9126 14.668 15.8613 14.6617C15.7116 14.6434 14.151 14.382 13.4872 14.2243L13.0302 14.1158L12.6549 14.3982C12.3007 14.6647 11.9156 14.8877 11.508 15.0616L11.0766 15.2456L10.9423 15.695C10.747 16.3484 10.1933 17.8297 10.1343 17.9684C10.1001 18.0487 8.60366 18.0487 8.56947 17.9683C8.5105 17.8297 7.95692 16.3484 7.76164 15.6951L7.62731 15.2457L7.1959 15.0616C6.78824 14.8877 6.40322 14.6648 6.04897 14.3983L5.67364 14.1159L5.21666 14.2245C4.55278 14.3822 2.99208 14.6435 2.84241 14.6618C2.75565 14.6724 2.00741 13.3763 2.05996 13.3065C2.15061 13.186 3.15718 11.9654 3.62557 11.4694L3.94723 11.1288L3.89139 10.6637C3.86512 10.4448 3.85186 10.2233 3.85186 10C3.85186 9.77667 3.86512 9.55522 3.89139 9.33635L3.94723 8.87119L3.62557 8.53058C3.15718 8.0346 2.15061 6.81396 2.05996 6.69349C2.00741 6.62365 2.75565 5.32763 2.84241 5.33821C2.99208 5.35647 4.55278 5.61785 5.21666 5.77554L5.67364 5.88408L6.04897 5.6017C6.40322 5.33517 6.78824 5.11226 7.1959 4.93836L7.62731 4.75432L7.76164 4.30495C7.95692 3.65163 8.5105 2.17034 8.56947 2.03168C8.60366 1.9513 10.1001 1.95127 10.1343 2.03164C10.1933 2.1703 10.747 3.65163 10.9423 4.30503ZM9.35186 13C7.69501 13 6.35186 11.6569 6.35186 10C6.35186 8.34315 7.69501 7 9.35186 7C11.0087 7 12.3519 8.34315 12.3519 10C12.3519 11.6569 11.0087 13 9.35186 13ZM10.3519 10C10.3519 10.5523 9.90415 11 9.35186 11C8.79958 11 8.35186 10.5523 8.35186 10C8.35186 9.44771 8.79958 9 9.35186 9C9.90415 9 10.3519 9.44771 10.3519 10Z" fill="black"></path>
  </symbol>
  <symbol fill="none" xmlns="http://www.w3.org/2000/svg" viewBox="0 0 18 18" id="subscriptions">
    <path opacity="0.24" fill-rule="evenodd" clip-rule="evenodd" d="M3.9056 1C3.9056 0.447715 4.35471 0 4.901 0H12.9102C13.4599 0 13.9056 0.443865 13.9056 1C13.9056 1.55228 13.4565 2 12.9102 2H4.901C4.35125 2 3.9056 1.55614 3.9056 1ZM0.0101027 8.0949L0.811023 16.1041C0.917267 17.1665 1.83603 18 2.90122 18H14.91C15.9712 18 16.8943 17.1632 17.0002 16.1041L17.8011 8.0949C17.9152 6.95379 17.0495 6 15.9047 6H1.90647C0.759323 6 -0.103812 6.95576 0.0101027 8.0949ZM2.01101 8.00421L15.7998 8.0079L14.9056 16H2.9056L2.01101 8.00421ZM2.90122 3C2.35555 3 1.9056 3.44772 1.9056 4C1.9056 4.55614 2.35136 5 2.90122 5H14.91C15.4557 5 15.9056 4.55228 15.9056 4C15.9056 3.44386 15.4598 3 14.91 3H2.90122Z" fill="black"></path>
  </symbol>
  <symbol fill="none" xmlns="http://www.w3.org/2000/svg" viewBox="0 0 16 21" id="trending">
    <path opacity="0.24" fill-rule="evenodd" clip-rule="evenodd" d="M13.615 7.20041C15.1323 8.51081 16 10.1175 16 12.321C16 16.9118 12.4133 20.5268 8.0115 20.5268C3.60573 20.5268 0 16.9093 0 12.321C0 9.79412 0.547583 8.23242 2.15502 5.6366C2.66365 4.81522 3.89867 5.11434 3.99436 6.08209C4.08034 6.95167 4.34435 7.69187 4.729 8.25935C4.47244 5.19295 5.80372 1.74433 9.08631 0.10596C9.84629 -0.27335 10.6943 0.424512 10.4966 1.26648C9.98409 3.44851 10.5121 4.62244 11.8924 5.88709C11.926 5.91795 12.098 6.04489 12.3254 6.21279C12.7373 6.51686 13.3311 6.95524 13.615 7.20041ZM2.62075 9.00737C2.33897 9.66335 2 10.4525 2 12.321C2 15.7681 4.70107 18.478 8.0115 18.478C11.3159 18.478 14 15.7727 14 12.321C14 10.7811 13.4246 9.71578 12.3258 8.76679C12.1524 8.61699 11.7458 8.31456 11.3632 8.0299C11.0014 7.76076 10.6609 7.5075 10.559 7.41416C9.23392 6.20002 8.4238 4.9071 8.31376 3.18307C7.64377 3.85212 6.10424 5.93208 6.97198 10.0484C7.1065 10.6865 6.6318 11.289 5.99451 11.289C4.73006 11.289 3.48016 10.2984 2.71627 8.78204C2.68562 8.85634 2.65357 8.93095 2.62075 9.00737Z" fill="black"></path>
  </symbol>
  <symbol fill="none" xmlns="http://www.w3.org/2000/svg" viewBox="0 0 20 18" id="history">
    <path opacity="0.24" fill-rule="evenodd" clip-rule="evenodd" d="M6.36364 0C4.85741 0 3.63636 1.20746 3.63636 2.69744V12.6H0.909091C0.407014 12.6 0 13.0042 0 13.4991V15.3C0 16.7912 1.22411 18 2.72727 18H13.6364C15.1423 18 16.3636 16.7944 16.3636 15.3045V5.4H19.0909C19.5965 5.4 20 4.99813 20 4.5024V2.70439C20 1.21111 18.7799 0 17.2727 0H6.36364ZM5.3 16.2C5.40009 15.9193 5.45455 15.6172 5.45455 15.3026V2.69744C5.45455 2.20206 5.86107 1.8 6.36364 1.8C6.86402 1.8 7.27273 2.2043 7.27273 2.7V4.50094C7.27273 4.99748 7.67624 5.4 8.18182 5.4H14.5455V15.3045C14.5455 15.7991 14.1394 16.2 13.6364 16.2H5.3ZM1.81818 14.4V15.3C1.81818 15.7957 2.22689 16.2 2.72727 16.2C3.22984 16.2 3.63636 15.7979 3.63636 15.3026V14.4H1.81818ZM9.09091 3.6V2.7C9.09091 2.38443 9.03609 2.0815 8.9354 1.8H17.2727C17.7747 1.8 18.1818 2.20414 18.1818 2.70439V3.6H9.09091Z" fill="black"></path>
  </symbol>
  <symbol fill="none" xmlns="http://www.w3.org/2000/svg" viewBox="0 0 20 19" id="home">
    <path opacity="0.24" fill-rule="evenodd" clip-rule="evenodd" d="M1.55192 10.5921C1.19689 10.9455 0.621289 10.9455 0.266267 10.5921C-0.0887555 10.2388 -0.0887555 9.66595 0.266267 9.31262L9.35718 0.264999C9.7122 -0.0883329 10.2878 -0.0883329 10.6428 0.264999L19.7337 9.31262C20.0888 9.66595 20.0888 10.2388 19.7337 10.5921C19.3787 10.9455 18.8031 10.9455 18.4481 10.5921L18.1818 10.3274V17.1945C18.1818 18.1933 17.3689 19 16.3628 19H3.63716C2.63348 19 1.81818 18.1934 1.81818 17.1945V10.3274L1.55192 10.5921ZM3.63716 17.1905L6.36364 17.191V11.7597C6.36364 11.2612 6.77023 10.8571 7.27003 10.8571H12.73C13.2306 10.8571 13.6364 11.2609 13.6364 11.7597V17.1929L16.3636 17.1945V8.51944L10 2.19166L3.63632 8.51948C3.63613 10.2308 3.63716 17.1905 3.63716 17.1905ZM11.8182 12.6653V17.1923L8.18182 17.1914V12.6667L11.8182 12.6653Z" fill="black"></path>
  </symbol>
</svg>


 